/* XPM */
static char *_2bbb2b859d74e24ba4143e2b27371f4QH9UK6fgnF69AlUL[] = {
/* columns rows colors chars-per-pixel */
"64 64 15 1 ",
"  c #050219",
". c #110E28",
"X c #2D1D5B",
"o c #262B44",
"O c #3A4466",
"+ c #6C4198",
"@ c #5A6988",
"# c #8523AD",
"$ c #DE39E8",
"% c #8B9BB4",
"& c #F792E3",
"* c #C0CBDC",
"= c #FED2DE",
"- c #E9E5E1",
"; c #F6F9E9",
/* pixels */
"                                                                ",
"   *         O                              o                   ",
"                                                                ",
"                                                                ",
"                               ..                               ",
"                  @            ..     O   *                     ",
"                               ..                               ",
"                               ..                               ",
"                               XX                               ",
"                               XX                               ",
"                               XX                               ",
"                               XX            %                  ",
"                          $    XX                               ",
"                               XX   o                       o   ",
" %                             XX                               ",
"                      $$       ##                  O            ",
"   O                  $$       ##                               ",
"                               ##                               ",
"                               ##                               ",
"                               ##           $                   ",
"                               ##                               ",
"                               ##                               ",
"                      XX       $$       XX          %           ",
"                      XX       $$       XX                o     ",
"                        ##     $$   % ##                        ",
"                        ##     $$     ##                        ",
"                   @      ###  &&  ###        %                 ",
"                          ###  &&  ###           O              ",
"                          ###  &&  ###o                         ",
"                             $$;;$$                             ",
"                             $$;;$$                             ",
"    ....XXXXXXX#######$$$$&&&;;;;;;===$$$$#######+++++++XXXX    ",
"    ....XXXXXXX#######$$$$&&&;;;;;;===$$$$#######+++++++XXXX    ",
"                             $$;;$$                             ",
"                             $$;;$$                             ",
"                          ###  &&  ###                          ",
"                          ###  &&  ###                       @  ",
"            $             ###  &&  ###      -                   ",
"                        ##     $$     ##                   o    ",
"                        ##     $$     ##                        ",
"                      XX       $$       XX    o                 ",
"                      XX       $$       XX                      ",
"                o              ##                  @            ",
"                  @          @ ##                               ",
"                               ##          %                    ",
"  o                            ##                               ",
"                               ##    $$                         ",
"                               ##    $$                         ",
"                  $            ##                               ",
"                               XX                    O          ",
"                               XX                          @    ",
"                             @ XX  XXX     $                    ",
"                               XX  XXX                          ",
"                               XX                               ",
"           %                   XX     o                         ",
"                               XX                      o        ",
"                               ..                           o   ",
"                               ..                               ",
"                               ..                               ",
"                               ..                            @  ",
"                                                                ",
"                                                                ",
"                                                                ",
"                %                                               "
};
