/* XPM */
static char *fb3e00e5db36458495ac96a83b605c26qUM28ooNoQmdZDqT[] = {
/* columns rows colors chars-per-pixel */
"64 64 89 1 ",
"  c #040306",
". c #0A0106",
"X c #040309",
"o c #09000B",
"O c #050112",
"+ c #090014",
"@ c #050219",
"# c #100A26",
"$ c #160C2E",
"% c #1D0B2D",
"& c #1A112C",
"* c #1C0735",
"= c #160A32",
"- c #1B0935",
"; c #1D0739",
": c #1C0A39",
"> c #210737",
", c #200B34",
"< c #22043C",
"1 c #3E1A5F",
"2 c #262B44",
"3 c #3D1A61",
"4 c #3F1169",
"5 c #46145E",
"6 c #4A125F",
"7 c #4A0F69",
"8 c #441565",
"9 c #491265",
"0 c #431B63",
"q c #451369",
"w c #49126A",
"e c #431868",
"r c #5E166F",
"t c #5F1972",
"y c #611867",
"u c #63146D",
"i c #68146D",
"p c #611869",
"a c #651571",
"s c #681472",
"d c #631973",
"f c #3A4466",
"g c #5A6988",
"h c #942E81",
"j c #952E89",
"k c #973185",
"l c #973089",
"z c #9D2C96",
"x c #9E2B9A",
"c c #9B3199",
"v c #A02A98",
"b c #9A2BA1",
"n c #A837A3",
"m c #A938A4",
"M c #BC6C87",
"N c #B76888",
"B c #BA6A8D",
"V c #B86F8C",
"C c #BC6F8F",
"Z c #B87088",
"A c #BC708E",
"S c #BB6E92",
"D c #BC6F93",
"F c #C26B96",
"G c #C0729A",
"H c #C0729C",
"J c #C068A2",
"K c #C36BA5",
"L c #C46BA5",
"P c #8B9BB4",
"I c #CC968A",
"U c #CB968E",
"Y c #CD998C",
"T c #CA9A90",
"R c #DB9796",
"E c #DE9697",
"W c #DA9993",
"Q c #DC9897",
"! c #DB9498",
"~ c #DD9799",
"^ c #CBA193",
"/ c #CFA194",
"( c #E48EB5",
") c #C0CBDC",
"_ c #FBEBDB",
"` c #FBEBDC",
"' c #FFE7E2",
"] c #FFE8E3",
"[ c #FFEAE5",
/* pixels */
"@@@@@@@@@@@@@@@@@@@@@@@@@@@@@@@@@@@@@@@@@@@@@@@@@@@@@@@@@@@@@@@@",
"@@@)@@@@@@@@@f@@@@@@@@@@@@@@@@@@@@@@@@@@@@@@@@@@@@@@@@@@@@@@@@@@",
"@@@@@@@@@@@@@@@@@@@@@@@@@@@@@@@@@@@@@@@@@@@@@@@@2@@@@@@@@@@@@@@@",
"@@@@@@@@@@@@@@@@@@@@@@@@@@@@@@@@@@@@@@@@@@@@@@@@@@@@@@@@@@@@@@@@",
"@@@@@@@@@@@@@@@@@@@@@@@@@@@@@@@@@@@@@@@@@@@@@@@@@@@@@@@@@@@@@@@@",
"@@@@@@@@@@@@@@@@@@)@@@@@@@@@@@@@@@@@@@@@@@@@@@@@@@@@@@@@@@@#@@@@",
"@@@@@@@@@@@@@@@@@@@@@@@@@@@@@@@@@@@@@@@@@@@@@@@@@@@@@@@@@@$@@@@@",
"@@@@@@@@@@@@@@@@@@@@@@@@@@@@@@@@@@@@@@@@@@@@@@@@@@@@@@@@@:@@@@@@",
"@@@@@@@@@@@@@@@@@@@@@@@@@@@@@@@@@@@@@@@@@@@@@@@@@@@@@@@@q@@@@@@@",
"@@@@@@@@@@@@@@@@@@@@@@@@@@@@@@@@@@@@@@@@@@@@@@@@@@@@;;-8@@@@@@@@",
"@@@@@@@@@@@@@@@@@@@@@@@@@@@@@@@@@@@@@@@@@@@@@@@@@@*---q-@@@@@@@@",
"@@@@@@@@@@@@@@@@@@@@@@@@@@@@@@@@@@@@@@@@@@@@@P@@@*--88-;@@@@@@@@",
"@@@@@@@@@@@@@@@@@@@@@@@@@@@@@@@@@g@@@@@@@@@@@@@@-*--88-;@@@@@@@@",
"@@@@@@@@@@@@@@@@@@@@@@@@P@@@@@@@@@@@2@@@@@@@-------s---@@@@@@@@@",
"@@@@@@@@@@@@@@@@@@@@@@@@@@@@@@@@=;;;;;*--------;*8d----@@@@@@@@@",
"@@2@@@@@@@@@@@@@@@@@@@@@@@@@****188888;--------88u8-**@@@@@@@@@@",
"@@@@@@@@@@@@@@@@@@@@@@@@@@-;iiiicxvxxxsa88ee998sz8*-::@@@@@@@@@@",
"@@@@@@@@@@@@@@@@@@@@@@@@;-sd---=0eee00CNussr99dnu8;-@@@@@@@@@@@@",
"@@@@@@@@@@@@@@@@@@@@@@=:98-:XXXX%---**ui~~FJllGu8---@@@@@@@@@@@@",
"@@@@@@@@@@@@@@@@@@@@$$-;<<ooXXXXXoo+--<<6V_[((l98---@@@@@@@@@@@@",
"@@@@@@@@@@@@@@@@@@@@$$-;<<ooXXXXXoo+--<<6V_[((l98---@@@@@@@@@@@@",
"@@@@@@@@@@@@@@@@@@@-----Oo XXXXXXXXXXXo:wjY/]]Kte--@@@@@@@@@@@@@",
"@@@@@@@@@@@@@@@@@@@:----XXXXXXXXXXXXXXX:9xEU__Fd8--@P@@@@@@@@@@@",
"@@@@@@@@@@@@@@@@@@;9<<XXXXXXXXXXXXXXXXX-uWxhZZ~u8--@@@@@@@@@@@@@",
"@@@@@@@@@@@@@@@@@@-9<<oXXXXXXXXXXXXXXXXqMu9q55!d8--@@@@@@@@@@@@@",
"@@@@@@@@@@@@@@@@@-u:oo XXXXXXXXXXXX XX>xq-,,<<iDa*-@@@@@@@@@@@@@",
"@@@@@@@@@@@@@@@@@-r-OOXXXXXXXXXXXXXX..p*XXXX<<iAs;*@@@@@@@@@@@@@",
"@@@@@@@@@@@@@@@@*s:XXXXXXXXXXXXXXXXO11.XXXXX--*8x8;@@@@@@@@@@@@@",
"@@@@@@@@@@@@@@@@*s:XXXXXXXXXXXXXXXXO11.XXXXX--*8x8;@@@@@@@@@@@@@",
"@@@@@@@@@@@@@@@@*s:XXXXXXXXXXXXXXX+-OO XXX X++-ex8;@@@@@@@@@@@@@",
"@@@@@@@@@@@@@@@@*s-XXXXXXXXXXXXXXXoOXXXXXXXXoo-ex8;@@@@@@@@@@@@@",
"@@@@@@@@@@@)@@@=0c3%XXXXXXXXXXXXXXXXXXXXXXXXoo-ex8;@@@@@@@@@@@@@",
"@@@@@@@@@@@@@@@;8ve-ooXXXXXXXXXXXXXXXXXXXXXXXX%1c0=@@@@@@@@@@@@@",
"@@@@@@@@@@@@@@@;8ve-ooXXXXXXXXOoXXXXXXXXXXXXXXX:s*@@@@@@@@@@@@@@",
"@@@@@@@@@@@@@@@;8ve-++X XXXXOO-+XXXXXXXXXXXXXXX:s*@@@@@@@@@@@@@@",
"@@@@@@@@@@@@@@@;8x8*--XXXXXX33OXXXXXXXXXXXXXXXX:s*@@@@@@@@@@@@@@",
"@@@@@@@@@@@@@@@;8x8*--XXXXXX33OXXXXXXXXXXXXXXXX:s*@@@@@@@@@@@g@@",
"@@@@@@@@@@@@@@@**sCi<<oXXX>y..XXXXXXXXXXXXXXoo:r*@@@@@@@@@@@@@@@",
"@@@@@@@@@@@@@@@--aBi<<::-ex*XXXXXXXXXXXXXXX oo:u-@@@@@@@@@@2@@@@",
"@@@@@@@@@@@@@@@--8sR6679iM4XXXXXXXXXXXXXXXXX;;q;@@@@@@@@@@@@@@@@",
"@@@@@@@@@@@@@@@--8s~VVjbWp-XXXXXXXXXXXXXX XX<<9;@@@@@@@@@@@@@@@@",
"@@@@@@@@@@@@@@@--8sF__IEx9:XXXXXXXXXXXXXXX-----@@@@@@@@@@@@@@@@@",
"@@@@@@@@@@@@@@@--etL''^Tkw:XXXXXXXXXXXX XO----$@@@@g@@@@@@@@@@@@",
"@@@@@@@@@@@@@@---99l(([`Z5<<--+ooXXX  oo;<--=$@@@@@@@@@@@@@@@@@@",
"@@@@@@@@@@@@@@---99l(([`Z5<<--+ooXXX  oo;<--$$@@@@@@@@@@@@@@@@@@",
"@@2@@@@@@@@@@@---8uHjjJF~Qiu;;---%XXXX::99-$@@@@@@@@@@@@@@@@@@@@",
"@@@@@@@@@@@@@@-;8smu99tdiuSD88eee0----ds;<@@@@@@@@@@@@@@@@@@@@@@",
"@@@@@@@@@@@@---;8zs88888qqssxxxxxcssss*-@@@@@@@@@@@@@@@@@@@@@@@@",
"@@@@@@@@@@@@**-8i88:------**888880**--@@@@@@@@@@@@@@@@@@@@@@@@@@",
"@@@@@@@@@@@*---d9;;--------*;;;;;=@@@@@@@@@@@@@@@@@@@@@@@@@@@@@@",
"@@@@@@@@@@@-==s-------@@@@@@@@@@@@@@@@@@@@@@@@@@@@@@@@@@@@@2@@@@",
"@@@@@@@@@@;:99--*;@@@@@@@@@@@g@@@@@@@@@@@@@@@@@@@@@@@@@@@@@@@@@@",
"@@@@@@@@@@;:99--*;@@@@@@@@@@@@@@@@@@@@@@@@@@@@@@@@@@@@@@@@@@@@@@",
"@@@@@@@@@@-q;;-*@@@@@@@@@@@@@@@@@@@@@@@@@@@@@@@@@@@@@@@@@@@@@@@@",
"@@@@@@@@@@5-;;@@@@@@@@@@@@@@@@@@@@@@@@2@@@@@@@@@@@@@@@@@@@@@@@@@",
"@@@@@@@@@q@@@@@@@@@@@@@@@@@@@@@@@@@@@@@@@@@@@@@@@@@@@@@@@@@@@@@@",
"@@@@@@@@:@@@@@@@@@@@@@@@@@@@@@@@@@@@@@@@@@@@@@@@@@@@@@@@@@@@@@@@",
"@@@@@@@$@@@@@@@@@@@@@@@@@@@@@@@@@@@@@@@@@@@@@@@@@@@@@@@@@@@@@@@@",
"@@@@@@@@@@@@@@@@@@@@@@@@@@@@@@@@@@@@@@@@@@@@@@@@@@@@@@@@@@@@@@@@",
"@@@@@@@@@@@@@@@@@@@@@@@@@@@@@@@@@@@@@@@@@@@@@@@@@@@@@@@@@@@@@g@@",
"@@@@@@@@@@@@@@@@@@@@@@@@@@@@@@@@@@@@@@@@@@@@@@@@@@@@@@@@@@@@@@@@",
"@@@&@@@@@@@@@@@@@@@@@@@@@@@@@@@@@@@@@@@@@@@@@@@@@@@@@@@@@@@@@@@@",
"@@@@@@@@@@@@@@@@@@@@@@@@@@@@@@@@@@@@@@@@@@@@@@@@@@@@@@@@@@@@@@@@",
"@@@@@@@@@@@@@@@@P@@@@@@@@@@@@@@@@@@@@@@@@@@@@@@@@@@@@@@@@@@@@@@@"
};
