/* XPM */
static char *_e2f8b5cc6dd4a86a7a29337d5013573[] = {
/* columns rows colors chars-per-pixel */
"64 64 169 2 ",
"   c #050219",
".  c #0A061D",
"X  c #0C081F",
"o  c #0C0621",
"O  c #0E0A22",
"+  c #0F0928",
"@  c #110725",
"#  c #130C25",
"$  c #160729",
"%  c #130D29",
"&  c #190D2C",
"*  c #121027",
"=  c #15112B",
"-  c #1C132C",
";  c #1B0732",
":  c #160D33",
">  c #1D0B31",
",  c #1C1332",
"<  c #1D143A",
"1  c #20152F",
"2  c #220B35",
"3  c #250E3A",
"4  c #2A0F3E",
"5  c #231433",
"6  c #251834",
"7  c #25153A",
"8  c #2B163D",
"9  c #2C1A3B",
"0  c #311E3E",
"q  c #2B0E43",
"w  c #320E49",
"e  c #231643",
"r  c #2D1542",
"t  c #241845",
"y  c #2F1A41",
"u  c #2D1248",
"i  c #271A4C",
"p  c #291A4E",
"a  c #321544",
"s  c #341A43",
"d  c #391C47",
"f  c #34164A",
"g  c #351A4A",
"h  c #3B1B4C",
"j  c #2C1B50",
"k  c #2D1D5B",
"l  c #331755",
"z  c #341D55",
"x  c #3D1953",
"c  c #3D1259",
"v  c #3E1B5A",
"b  c #262B44",
"n  c #332142",
"m  c #3C244A",
"M  c #3D284B",
"N  c #3A2359",
"B  c #431457",
"V  c #421B54",
"C  c #42165C",
"Z  c #44195B",
"A  c #4B1C5E",
"S  c #42244E",
"D  c #432A4E",
"F  c #432451",
"G  c #4A2754",
"H  c #4B2D54",
"J  c #462758",
"K  c #4B245B",
"L  c #54295F",
"P  c #552C5E",
"I  c #451561",
"U  c #461A61",
"Y  c #4C1C63",
"T  c #4F176D",
"R  c #4C1B6B",
"E  c #511D63",
"W  c #531D6B",
"Q  c #5B1F6D",
"!  c #551B72",
"~  c #5B1D74",
"^  c #571F79",
"/  c #591978",
"(  c #641E7E",
")  c #6A1B7A",
"_  c #4E2064",
"`  c #432864",
"'  c #532264",
"]  c #592266",
"[  c #532B61",
"{  c #54216B",
"}  c #5C226C",
"|  c #5B2B6B",
" . c #583260",
".. c #552670",
"X. c #5C2274",
"o. c #5C247B",
"O. c #4E3072",
"+. c #523376",
"@. c #612E6D",
"#. c #633B67",
"$. c #67356E",
"%. c #68366F",
"&. c #67386D",
"*. c #612A73",
"=. c #6A2D76",
"-. c #65227C",
";. c #68207B",
":. c #6E2D79",
">. c #71247F",
",. c #6A3677",
"<. c #703679",
"1. c #3A4466",
"2. c #754278",
"3. c #631D83",
"4. c #6C1F8E",
"5. c #6A2384",
"6. c #6D218C",
"7. c #762A84",
"8. c #79258B",
"9. c #713581",
"0. c #783E82",
"q. c #7D2594",
"w. c #7B2894",
"e. c #7C3590",
"r. c #6C4198",
"t. c #5A6988",
"y. c #80268E",
"u. c #822C8D",
"i. c #84378C",
"p. c #852892",
"a. c #842897",
"s. c #82279F",
"d. c #8D2B9A",
"f. c #8B309E",
"g. c #95339F",
"h. c #8021A6",
"j. c #8020A7",
"k. c #8E29A2",
"l. c #8523AD",
"z. c #8E26AA",
"x. c #9629A8",
"c. c #9B28A8",
"v. c #973CA0",
"b. c #9A33A9",
"n. c #A02DAC",
"m. c #A13FA6",
"M. c #A22AB5",
"N. c #8A418E",
"B. c #8A5188",
"V. c #894D90",
"C. c #9D589C",
"Z. c #915FB6",
"A. c #A347AA",
"S. c #AB54AA",
"D. c #A658AB",
"F. c #AD60AC",
"G. c #B732C3",
"H. c #C135D5",
"J. c #DE3BE8",
"K. c #DE3DE8",
"L. c #BB4AC8",
"P. c #B954C2",
"I. c #8B9BB4",
"U. c #D086CC",
"Y. c #F78FE3",
"T. c #F792E3",
"R. c #C0CBDC",
"E. c #FED2DE",
"W. c #F6F9E9",
/* pixels */
"                                                            . . X . . o @ #               I.                                    ",
"                                        8 8                 . O # # # 2 4 a                                                     ",
"                                        8 =.2             . # # - - - 8 a a                                                     ",
"                                      . 2 2 ;           . O & 1 5 5 5 8 4 3           -                                         ",
"    t.                                                  X % 5 9 s 9 5 & #           5 5 -                                       ",
"                        - - -                         . # , s P P G 8 - # .         s g -                                       ",
"                        - 5 - -         . X .           @ 7 A :.Y.=.g - # X         =.s                                         ",
"      b                 - d 8 3       X # # # .         O 5 Y K.K.K.V 5 - #                                                     ",
"                b         8 4 2     . @ - 5 5 O . . .   O 5 h j.K.q.Z 7 - #                                                     ",
"                            2 ;     X # 5 g 8 2 . . . . # 5 f Z j.Y x 7 - #                             I.                      ",
"                                    . O 1 8 =.2 . . X O - 5 8 g x x y 5 - #                                                     ",
"                                            2 ;     . # - 5 8 9 s n y 9 - #     o - 5 -                                         ",
"                                                    O # - 5 9 9 0 m n 9 - #   X ; d a & .                                       ",
"        t.                                      . O # - 5 9 n D H H M 9 - # . . 2 =.a % .                                       ",
"                    1.                        . O # , 7 s m  .#.B.2.G 5 - # O O = 8 7 @ .                                       ",
"                                              X # 5 8 g J [ 0.Y.Y.Y.[ 5 - - # = - = % O .                                       ",
"                                              X # 5 V ] *.| =.K.Y.K.| s 5 - - - , , % .                                         ",
"                                              . # 5 g K.] V } j.K.j.{ s 5 - - - , , < < % .                                     ",
"                                            . O   - g ' K.h d V j.Y V 9 5 - - , , < t k :                                 b     ",
"                                            O - - - 5 s s s s h d F m n 5 - , 5 < e i k                                         ",
"                                              d 8 - 1 1 6 9 d S G D D n 5 5 5 7 e i e : = t.                                    ",
"                                              8 =.d 1 5 6 s G L @.$.H n 5 5 7 7 j p < + O O   b                                 ",
"              . o .                             8 9 - 6 0 M &.N.K.i.S 8 - - h Y R l : o         .                               ",
"              + % % O .                         - 5 5 9 m %.Y.Y.K.g.K.8 - - V ( ^ l %                                           ",
"              , < < , + .                       # - 7 d F ,.A.K.K.K.A d - 5 W 3.! u @                                           ",
"        b       k < e e : o                     # - 9 h v ..a.K.K.j.A a 5 a K.! c 2 O                                           ",
"                    j z z e , % o           . . # - a x { o.w.j.j.Y h s a W ! I q @ .                                           ",
"    t.                r.O.N N p 7 % o   . X O O % 5 8 V X.5.} -.! Z d x H.4.~ C 3 @                                             ",
"                          r.+.` ` f 3 & & & & # & 7 7 g ] l.l.*.j.' d W q.z.( B 2 @                                             ",
"                              r.r.o.Z f a r 8 , , 7 s h A ' l.j.Y.j.K d J.J.;.f & X                                             ",
"                                  l.o.Y R Z x r 5 8 y x Y 5.l.K.K.Y.,.J.J.d.Q r & O .                                           ",
"                                      3.4.4.W Z a s y h W 6.l.l.K.K.<.J.G.7.V 5 - # O . . .                                     ",
"                                        l.4.4.( Q A h h Y 6.l.l.K.K.T.J.g.E 5 5 - - % # O . . .         R.                      ",
"                                            ! 5.8.p.>.} W W l.K.K.K.T.T.7.V 5 5 7 7 5 - % O .                                   ",
"                                          7 V ~ 8.d.J.J.V Q k.J.K.T.T.W *.Z Z Z Y R v 7 - # .                                   ",
"                                          - 5 a E e.v.F.E.E.J.J.J.W.T.j.~ ~ 3./ T I x 8 - O .                                   ",
"                            1.              - 5 s K @.V.U.E.W.W.W.W.J.J.j.l.l./ c w q >                                         ",
"                                  I.        - , 8 h K 9.P.J.W.W.W.W.J.J.s.W l.c ;   . O % O                                     ",
"                                            - 5 f V _ 5.f.J.J.W.W.W.W.q.A U 4 q @ . . O O O                                     ",
"                                            8 f x U W Z.-.L.W.W.W.W.W.T.T.- V 2 2 $ @ . O                                       ",
"          b                                 f x Z U W X.b.D.T.W.J.J.Y T.T.T.u.) B w & $ @ O .                                   ",
"                      I.              k % > 7 x x V A 5.@.C.T.A E x 8 -   J.J.c.a.( c r 5 % # .                                 ",
"                                      + % > 7 r a f A A i.S.T.5 5             J.M.z.3.R f 7 - # .                               ",
"                                        . @ - 5 5 a d Q b.m.                    J.l.l.l.U x f 5 @ o . . .                       ",
"                                          X # - 5 7 V y.n.p.                      - l.l.l.l.U r 5 % @ # # .                     ",
"                                          . # - , 8 Q x.c.                              l.l.l.k t , , , = # .                   ",
"                                          . # - 7 x Q J.J.                                  l.k p t 7 < , = # .       o         ",
"                                          . # - 7 Z l.l.                                      k k p i e < , # .       o 1.      ",
"                        1.              . O - 7 r ! l.l.      b                                   k k i e < - .                 ",
"                                        . # 5 r U 4.l.                                                k k % %               I.  ",
"      b                           . . . O % 7 x ! l.l.b                       I.                          % % % %               ",
"                                  o O O # % 8 v l.l.        t.                                                %                 ",
"                                . O = * = - e l l.                                                                              ",
"                                . o O # = , t k k                                                                               ",
"                                  . X # = 7 p k                                                                                 ",
"                                      + , t j k                                                                                 ",
"                                      % < p k                                                                                   ",
"                                      % k k k                                                                                   ",
"                                        k k       1.                                      t.                                    ",
"                                      % % %                                                                                     ",
"                                      % %                                                                                       ",
"                                    % %                                                                                         ",
"                                      %                                                             1.                  R.      ",
"                                                                                                                                "
};
