/* XPM */
static char *e8f4acf69a3149b49059af575b2a73f2GQXcsx95WIdxM6uG[] = {
/* columns rows colors chars-per-pixel */
"64 64 168 2 ",
"   c #050219",
".  c #0A061D",
"X  c #0C081F",
"o  c #0C0621",
"O  c #0E0A22",
"+  c #0F0928",
"@  c #110725",
"#  c #130C25",
"$  c #160729",
"%  c #130D29",
"&  c #190D2C",
"*  c #121027",
"=  c #15112B",
"-  c #1C132C",
";  c #1B0732",
":  c #160D33",
">  c #1D0B31",
",  c #1C1332",
"<  c #1D143A",
"1  c #20152F",
"2  c #220B35",
"3  c #250E3A",
"4  c #2A0F3E",
"5  c #231433",
"6  c #251834",
"7  c #25153A",
"8  c #2B163D",
"9  c #2C1A3B",
"0  c #311E3E",
"q  c #2B0E43",
"w  c #320E49",
"e  c #231643",
"r  c #2D1542",
"t  c #241845",
"y  c #2F1A41",
"u  c #2D1248",
"i  c #271A4C",
"p  c #291A4E",
"a  c #321544",
"s  c #341A43",
"d  c #391C47",
"f  c #34164A",
"g  c #351A4A",
"h  c #3B1B4C",
"j  c #2C1B50",
"k  c #2D1D5B",
"l  c #331755",
"z  c #3B1454",
"x  c #341D55",
"c  c #3D1953",
"v  c #3D1259",
"b  c #3E1B5A",
"n  c #262B44",
"m  c #332142",
"M  c #3C244A",
"N  c #3D284B",
"B  c #3A2359",
"V  c #431457",
"C  c #421B54",
"Z  c #42165C",
"A  c #44195B",
"S  c #4B1C5E",
"D  c #42244E",
"F  c #432A4E",
"G  c #432451",
"H  c #4A2754",
"J  c #4B2D54",
"K  c #462758",
"L  c #4B245B",
"P  c #542B5E",
"I  c #451561",
"U  c #461A61",
"Y  c #4C1C63",
"T  c #4F176D",
"R  c #4C1B6B",
"E  c #511D63",
"W  c #531D6B",
"Q  c #5B1F6D",
"!  c #541B71",
"~  c #561C72",
"^  c #5B1D74",
"/  c #571F79",
"(  c #591978",
")  c #641E7E",
"_  c #6A1B7A",
"`  c #4E2064",
"'  c #432864",
"]  c #532264",
"[  c #592266",
"{  c #532B61",
"}  c #54216B",
"|  c #5C226C",
" . c #5B2B6B",
".. c #583260",
"X. c #552670",
"o. c #5C2274",
"O. c #5C247B",
"+. c #4E3072",
"@. c #523376",
"#. c #612E6D",
"$. c #633B67",
"%. c #67356E",
"&. c #68366F",
"*. c #67386D",
"=. c #612A73",
"-. c #6A2D76",
";. c #65227C",
":. c #68207B",
">. c #6E2D79",
",. c #71247F",
"<. c #6A3677",
"1. c #703679",
"2. c #3A4466",
"3. c #754278",
"4. c #631D83",
"5. c #6B1F8B",
"6. c #6C1F8F",
"7. c #6A2384",
"8. c #6D218C",
"9. c #762A84",
"0. c #79258B",
"q. c #713581",
"w. c #783E82",
"e. c #7D2594",
"r. c #7B2894",
"t. c #7C3590",
"y. c #6C4198",
"u. c #5A6988",
"i. c #80268E",
"p. c #822C8D",
"a. c #84378C",
"s. c #852892",
"d. c #842897",
"f. c #82279F",
"g. c #8D2B9A",
"h. c #8B309E",
"j. c #95339F",
"k. c #8021A7",
"l. c #8E28A6",
"z. c #8523AD",
"x. c #9629A8",
"c. c #9B28A8",
"v. c #973CA0",
"b. c #9A33A9",
"n. c #A02DAC",
"m. c #A13FA6",
"M. c #A22AB5",
"N. c #8A418E",
"B. c #8A5188",
"V. c #894D90",
"C. c #9D589C",
"Z. c #915FB6",
"A. c #A347AA",
"S. c #AB54AA",
"D. c #A658AB",
"F. c #AD60AC",
"G. c #B732C3",
"H. c #C135D5",
"J. c #DE3BE8",
"K. c #BB4AC8",
"L. c #B954C2",
"P. c #8B9BB4",
"I. c #D086CC",
"U. c #F78FE3",
"Y. c #F792E3",
"T. c #C0CBDC",
"R. c #FED2DE",
"E. c #F6F9E9",
/* pixels */
"                                                                                                                                ",
"                                                                                                                                ",
"                                                                        u.                                            u.        ",
"                          n                                                                                     n               ",
"                                                                            n                       u.                          ",
"                                              n                                                                                 ",
"                                                                                                                                ",
"                                                                              , + .                                             ",
"                                                                            k < % o                           n                 ",
"                                                                            < < % .                                             ",
"                                                                          j e , O                 2.                            ",
"                                            P.                          y.x e + .                                               ",
"                              2.                                        +.x : .                                 - - -           ",
"                                                                      y.B e o                                 8 d 5 -           ",
"                                                      2.              @.B ,                                 2 4 8 - -           ",
"                                                                    y.' p %                                 > 2 3 -             ",
"                    . .                                             y.' 7 o                                                     ",
"                  . o O o .                         P.            z.O.f %                                                       ",
"    %       . . . X O = O .                                       O.A 3 o                                 . X .                 ",
"  % % % %   % % + # # * O .               + k                   4.R f &                                   O % # X       .       ",
"      % % k k < , = = = # O . .         . % %                 z.6.R a & .                                 - 5 - # .     2 8 8   ",
"        % k k p t 7 , - % % # O . . . X # > >           - 7   6.6.A u & X                             .   8 h 5 % X     2 -.8   ",
"            k k j p t e 8 7 5 - % # # % - 7 7 f 8 - - - 5 C ! 6.W z 8 & # .             O .           . 2 -.8 5 # .     > 2     ",
"                k k k l b c r 7 - - - - 5 r c c g 5 , 5 a ^ 7.) Z r , % O .         8 g - O . X . .     > 2 2 O .               ",
"                    k z.z.! U r 7 7 , 5 5 a c Z c f 8 a E 0.0.Q a 5 , & % # % % - 8 -.8 -   # % % O .     . . .                 ",
"          2.            z.z.6.! A c 8 8 a f C U U C h L t.g.s.S a 8 7 5 5 - - - 5 9 g - - - 5 5 , % O     . . .                 ",
"                          z.z.z.z.Q Q C g S S W W ` L #.v.J.,.h y y s 8 8 a 9 8 5 - 1 1 6 h h C 8 , % O . X . .                 ",
"                          n   z.z.J.x.i.Q S 7.o.Z.7.q.V.F.J.| h h c h h C c g g 9 6 5 1 s ] J.[ h 8 - % # O .       .           ",
"                                  J.c.n.b.a.#.b.;.h.L.I.R.C W Y W Y S [ o.} b G M 0 6 6 a J.[ =.K a 5 - - - # O O # # X .       ",
"                                      s.m.S.C.D.K.J.J.R.R.Q W 8.8.7.] z.7.O.X.<.&.M s 0 s h C  .{ M 9 5 5 5 5 5 5 7 , & O . .   ",
"                        u.                Y.Y.Y.E.J.E.E.J.l.z.z.z.z.z.z.| r.d.A.U.*.H d a g | -.w...m 9 9 8 f h Y S a 5 & # . . ",
"                              n           5 S E.E.E.E.E.J.J.J.z.z.J.k.=.;.k.J.J.U.N.P D h c k.J.U.$.F 9 9 h A k.J.>.P 9 1 % O . ",
"                                          5 E J.E.E.E.E.J.J.J.J.J.J.U.k.! k.J.J.J.J.#.G d k.J.U.U.B.J 0 a c k.J.J.U.P s 5 - # X ",
"                                            c J.E.E.E.E.E.Y.J.J.J.U.k.] Z Y k.J.j.a.%.F G Y k.J.U.3.J M m c Y k.J.-.H 9 5 - # . ",
"                                            8 Y E.E.J.J.Y.Y.Y.Y.1.<.L g g h S S J.D J F N C [  .{ F N m y y c A C h 9 5 5 - $ . ",
"                                            - Y.Y.e.J.J.k.W Y.J.J.J.d W c s a g 8 9 m m m 9 a s 5 5 9 9 9 5 8 7 5 - - & 8 8 2 o ",
"                                              Y.Y.S f.k.~ =.9.j.G.J.J.e.H.a 5 - - - 5 5 5 5 5 5 - - - - - - - - - % # # 4 a 4 @ ",
"                                            J.Y.- U W z.^ A C E 9.g.J.l.5.W a 5 - - 5 5 - - - - - # # # % % % % # X . . 3 a a $ ",
"                                            J.p.C 4 z.z.4.A 5 5 C Q :.) ^ ~ J.W C h 7 5 , - - - % X .                           ",
"                          P.              J.c._ 2 q v ( ( A 5 5 5 r f V Z I ! 4.) Y 7 7 5 , - - = O . X .                       ",
"                                        J.M.d.V 2 @ ; v T R 7 - - & & 2 3 q v ~ / R j e < , , , - = 2 > o .                     ",
"                                      - z.x.) w $ .   w I R 7 - # O X @ @ @ 2 u l l p i e < , : = 8 -.g -                       ",
"                                      z.z.4.v & @ . . q z b 5 % O .       . O # % : < e i t < % % 7 a a 5         -.s 5         ",
"                                      z.z.R u $ o O O > 8 7 - # .           . . . o + : k k < . O # % & -         s h 5 -       ",
"                                    z.z.U g 5 # O O %   - - % O .                   O =   : %   . . . .             - -         ",
"          u.                        z.z.c 7 % O   O O   O # O . .                   O u.    .                                 P.",
"                                  z.z.U f - # .         . . . . .                                                               ",
"                                k k k r 5 % .               . . .                   n                                           ",
"                                k p t 5 # .                                       .                                             ",
"                              k p t , % o                                                                                       ",
"  2.                          k i 7 , # .                                                                                       ",
"                            k i e < , # .                                                                                       ",
"                            k e < , = # .                     T.                                            P.                  ",
"                          % % < , = # .                                                                                         ",
"                          % % - # # .                                                                                           ",
"                        % %   . . .                                                                                             ",
"                          %                                                                                                     ",
"                                                                                                                                ",
"                                                                                                                                ",
"                                o o                                                                                             ",
"  T.                            2.                                                                                              ",
"                                                                                          n                                     ",
"                            P.                                                                                                  ",
"                                                                                                                                "
};
