/* XPM */
static char *_d02fe510623460684f84a4a441653a8Mhb9FyKHEvVdSs4w[] = {
/* columns rows colors chars-per-pixel */
"64 64 170 2 ",
"   c #050219",
".  c #0A061D",
"X  c #0C081F",
"o  c #0C0621",
"O  c #0E0A22",
"+  c #0F0928",
"@  c #110725",
"#  c #130C25",
"$  c #160729",
"%  c #130D29",
"&  c #190D2C",
"*  c #121027",
"=  c #15112B",
"-  c #1C132C",
";  c #1B0732",
":  c #160D33",
">  c #1D0B31",
",  c #1C1332",
"<  c #1D143A",
"1  c #20152F",
"2  c #220B35",
"3  c #250E3A",
"4  c #2A0F3E",
"5  c #231433",
"6  c #251834",
"7  c #25153A",
"8  c #2B163D",
"9  c #2C1A3B",
"0  c #311E3E",
"q  c #2B0E43",
"w  c #320E49",
"e  c #231643",
"r  c #2D1542",
"t  c #241845",
"y  c #2F1A41",
"u  c #2D1248",
"i  c #271A4C",
"p  c #291A4E",
"a  c #321544",
"s  c #341A43",
"d  c #391C47",
"f  c #34164A",
"g  c #351A4A",
"h  c #3B1B4C",
"j  c #2C1B50",
"k  c #2D1D5B",
"l  c #331755",
"z  c #3B1454",
"x  c #341D55",
"c  c #3D1953",
"v  c #3D1259",
"b  c #3E1B5A",
"n  c #262B44",
"m  c #332142",
"M  c #3C244A",
"N  c #3D284B",
"B  c #3A2359",
"V  c #431457",
"C  c #421B54",
"Z  c #42165C",
"A  c #44195B",
"S  c #4B1C5E",
"D  c #42244E",
"F  c #432A4E",
"G  c #432451",
"H  c #4A2754",
"J  c #4B2D54",
"K  c #462758",
"L  c #4B245B",
"P  c #542B5E",
"I  c #451561",
"U  c #461A61",
"Y  c #4C1C63",
"T  c #4F176D",
"R  c #4C1B6B",
"E  c #511D63",
"W  c #531D6A",
"Q  c #521C6C",
"!  c #5B1F6D",
"~  c #551B72",
"^  c #5C1F72",
"/  c #5B1C77",
"(  c #571F79",
")  c #591978",
"_  c #641E7E",
"`  c #6A1B7A",
"'  c #4E2064",
"]  c #432864",
"[  c #532264",
"{  c #592266",
"}  c #532B61",
"|  c #54216B",
" . c #5C226C",
".. c #5B2B6B",
"X. c #583260",
"o. c #552670",
"O. c #5C2274",
"+. c #5C247B",
"@. c #4E3072",
"#. c #523376",
"$. c #612E6D",
"%. c #633B67",
"&. c #67356E",
"*. c #68366F",
"=. c #67386D",
"-. c #612A73",
";. c #6A2D76",
":. c #65227C",
">. c #68207B",
",. c #6E2D79",
"<. c #71247F",
"1. c #6A3677",
"2. c #703679",
"3. c #3A4466",
"4. c #754278",
"5. c #631D83",
"6. c #6C1F8E",
"7. c #6A2384",
"8. c #6D218C",
"9. c #762A84",
"0. c #79258B",
"q. c #713581",
"w. c #783E82",
"e. c #7D2594",
"r. c #7B2894",
"t. c #7C3590",
"y. c #6C4198",
"u. c #5A6988",
"i. c #80268E",
"p. c #822C8D",
"a. c #84378C",
"s. c #852892",
"d. c #842897",
"f. c #82279F",
"g. c #8D2B9A",
"h. c #8B309E",
"j. c #95339F",
"k. c #8021A7",
"l. c #8E29A2",
"z. c #8523AD",
"x. c #8E26AA",
"c. c #9629A8",
"v. c #9B28A8",
"b. c #973CA0",
"n. c #9A33A9",
"m. c #A02DAC",
"M. c #A13FA6",
"N. c #A22AB5",
"B. c #8A418E",
"V. c #8A5188",
"C. c #894D90",
"Z. c #9D589C",
"A. c #915FB6",
"S. c #A347AA",
"D. c #AB54AA",
"F. c #A658AB",
"G. c #AD60AC",
"H. c #B732C3",
"J. c #C135D5",
"K. c #DE39E8",
"L. c #DE3BE8",
"P. c #BB4AC8",
"I. c #B954C2",
"U. c #8B9BB4",
"Y. c #D086CC",
"T. c #F78FE3",
"R. c #F792E3",
"E. c #C0CBDC",
"W. c #FED2DE",
"Q. c #F6F9E9",
/* pixels */
"                                                                                                                                ",
"                                                                                                  U.                            ",
"                                    n                                                                                           ",
"                                                                                              3.                            E.  ",
"                                                                                            o o                                 ",
"                                                                                                                                ",
"                                                                                                                                ",
"                                                                                                    %                           ",
"                                                                                            . . .   % %                         ",
"                                                                                          . # # - % %                           ",
"                                                                                        . # = , < % %                           ",
"                  U.                                            E.                    . # = , < t k                             ",
"                                                                                      . # , < e i k                             ",
"                                                                                      . # , 7 i k                           3.  ",
"                                                                                      o % , t p k                               ",
"                                            .                                       . # 5 t p k                                 ",
"                                          n                     .                 . # 5 r k k k                                 ",
"                                                                . . . .         . # - f U z.z.                                  ",
"U.                                .     u.O                   . . O # O   O O   O % 7 c z.z.                        u.          ",
"        - -             . . . .   % :   = O                   . O % - -   % O O # 5 f U z.z.                                    ",
"      = 5 h s         = & % # O . < k k : + o                 . # = 7 8 > O O . % r R z.z.                                      ",
"        5 s ;.        5 s a 7 % % < t i t < : % # O . .     . O % 5 b z q . . @ & v 5.z.z.                                      ",
"                      - d ;.8 = , , < e i p l l u 2 @ @ @ X O # - 7 R I w   . $ w _ x.z.-                                       ",
"                      o 2 2 = - , , , < e j R ( ~ v q 3 2 & & = - 7 Y T v ; @ 2 V d.N.L.                                        ",
"                      . X . O = - - , 5 7 7 Y _ 5.~ I Z V f 8 7 5 5 A ) ) v q 2 ` v.L.              U.                          ",
"                          . O # - - - , 5 7 h C Q L.~ / _ >.! C 5 5 A 5.z.z.4 C p.L.                                            ",
"% a a 3 . . X # # # # # # # # = - - - - 5 5 - = 7 f Q 6.x.L.g.9.E C A / z.Q U = R.L.                                            ",
"# 4 a 4 # # # = - - - - = = = - 5 5 6 5 5 5 = - - 7 f J.e.L.L.H.j.9.-.^ k.f.S R.R.                                              ",
"o 2 8 8 & - - 7 7 7 7 9 9 9 6 7 s s 9 m m m 9 8 f a s c W d L.L.L.R.W k.L.L.e.R.R.=                                             ",
". # - 5 7 9 h C A c y y m N G } ..{ C N F J D L.S S h f g L 1.2.R.R.R.R.L.L.Q.Q.Y 8                                             ",
". # = 5 9 H ;.L.k.Y c m M J 4.T.L.k.Y G F &.a.j.L.k.Y A [ k.T.L.L.L.R.Q.Q.Q.Q.Q.L.c                                             ",
"X # = 5 s P T.L.L.k.c s 0 J V.T.T.L.k.d G $.L.L.L.L.k.^ k.T.L.L.L.L.L.L.Q.Q.Q.Q.L.E 5                                           ",
"X O # 1 9 P ,.L.k.A h 9 9 F %.T.L.k.c h D P B.T.L.L.k.:.-.k.L.z.z.L.L.L.Q.Q.Q.Q.Q.S 7           n                               ",
". . # & 5 s S Y h f 8 9 9 m X.w.;. .f s d G =.T.S.d.r. .z.z.z.z.z.z.l.L.Q.Q.L.Q.R.R.R.                u.                        ",
"    X # % , 7 5 5 5 5 7 7 9 M P ..C h d 9 m N *.1.o.+.7.z.[ 7.8.8.W ! W.W.L.L.P.F.Z.D.M.s.                                      ",
"      . X # # O O # = - - 7 s K -.{ L.s 6 6 0 M G b | O.{ S Y W Y W C W.Y.I.h.:.n.$.a.n.m.v.L.                                  ",
"          .       . O # # - 7 h { L.[ s 1 5 6 9 f g c C h h c h h  .L.G.C.q.7.A.O.7.S ! i.c.L.z.z.  n                           ",
"                . . X . O # , 8 C h h 6 1 1 - 7 7 9 a 8 7 s y y h <.L.b.$.L ' W W S S f C ! ! z.z.z.z.                          ",
"                . . .   . # # , 7 5 - = = f 9 5 - - - 5 7 7 8 s S s.g.t.L h C U U C f f 7 8 c A ~ 6.z.z.            3.          ",
"                . . .     . O # # #   - 8 ;.8 - # # # % & 5 7 f ! 0.0.E s 8 f c A c f 7 5 , 7 7 r U ~ z.z.k                     ",
"              . O 2 2 ;     . . X . O - f 8         . O # , r A _ 7.^ f 5 , 7 f c c r 5 - = - - 7 r c b x k k k                 ",
"    2 ;     . # 5 8 ;.2 .           . O             . O & 8 z R 6.^ C 5 = = - 8 f 7 7 - # # # # - 5 7 8 e t p j k k             ",
"  8 ;.2     X # 5 h 8   .                             X & r A 6.6.  7 =           > > # X . . . O # % % - , 7 t p k k %         ",
"  8 8 2     . # - 5 -                                 . & a R 6.z.                % % .         . . O # = = = , < k k % %       ",
"      .       X # # O                                   & f Y 5.                  k +               X O * # # + % %   % % % %   ",
"                . X .                                 o 3 A +.                                      . O = O X             %     ",
"                                                      % f +.z.            U.                        . o O o .                   ",
"                                                    o 7 ] y.                                            . .                     ",
"            = 3 2 ;                                 % p ] y.                                                                    ",
"          = - 8 4 2                                 , B #.              3.                                                      ",
"          = 5 d 8                                 o e B y.                                                                      ",
"          = - -                                 . : x @.                                        3.                              ",
"                                              . + e x y.                          U.                                            ",
"                            3.                O , e j                                                                           ",
"                                            . % < <                                                                             ",
"                n                           o % < k                                                                             ",
"                                            . + ,                                                                               ",
"                                                                                                                                ",
"                                                                                n                                               ",
"                          u.                      n                                                                             ",
"              n                                                                                     n                           ",
"        u.                                            u.                                                                        ",
"                                                                                                                                ",
"                                                                                                                                "
};
