/* XPM */
static char *b6c664f7ddef44b2e7295c07f407e0d3rmIDnMK5mxsbR9MU[] = {
/* columns rows colors chars-per-pixel */
"64 64 168 2 ",
"   c #050219",
".  c #0A061D",
"X  c #0C081F",
"o  c #0C0621",
"O  c #0E0A22",
"+  c #0F0928",
"@  c #110725",
"#  c #130C25",
"$  c #160729",
"%  c #130D29",
"&  c #190D2C",
"*  c #121027",
"=  c #15112B",
"-  c #1C132C",
";  c #1B0732",
":  c #160D33",
">  c #1D0B31",
",  c #1C1332",
"<  c #1D143A",
"1  c #20152F",
"2  c #220B35",
"3  c #250E3A",
"4  c #2A0F3E",
"5  c #231433",
"6  c #251834",
"7  c #25153A",
"8  c #2B163D",
"9  c #2C1A3B",
"0  c #311E3E",
"q  c #2B0E43",
"w  c #320E49",
"e  c #231643",
"r  c #2D1542",
"t  c #241845",
"y  c #2F1A41",
"u  c #2D1248",
"i  c #271A4C",
"p  c #291A4E",
"a  c #321544",
"s  c #341A43",
"d  c #391C47",
"f  c #34164A",
"g  c #351A4A",
"h  c #3B1B4C",
"j  c #2C1B50",
"k  c #2D1D5B",
"l  c #331755",
"z  c #3B1454",
"x  c #341D55",
"c  c #3D1953",
"v  c #3D1259",
"b  c #3E1B5A",
"n  c #262B44",
"m  c #332142",
"M  c #3C244A",
"N  c #3D284B",
"B  c #3A2359",
"V  c #431457",
"C  c #421B54",
"Z  c #42165C",
"A  c #44195B",
"S  c #4B1C5E",
"D  c #42244E",
"F  c #432A4E",
"G  c #432451",
"H  c #4A2754",
"J  c #4B2D54",
"K  c #462758",
"L  c #4B245B",
"P  c #542B5E",
"I  c #451561",
"U  c #461A61",
"Y  c #4C1C63",
"T  c #4F176D",
"R  c #4C1B6B",
"E  c #511D63",
"W  c #531D6B",
"Q  c #5B1F6D",
"!  c #551B72",
"~  c #5B1D74",
"^  c #571F79",
"/  c #591978",
"(  c #641E7E",
")  c #6A1B7A",
"_  c #4E2064",
"`  c #432864",
"'  c #532264",
"]  c #592266",
"[  c #532B61",
"{  c #54216B",
"}  c #5C226C",
"|  c #5B2B6B",
" . c #583260",
".. c #552670",
"X. c #5C2274",
"o. c #5C247B",
"O. c #4E3072",
"+. c #523376",
"@. c #612E6D",
"#. c #633B67",
"$. c #67356E",
"%. c #68366F",
"&. c #67386D",
"*. c #612A73",
"=. c #6A2D76",
"-. c #65227C",
";. c #68207B",
":. c #6E2D79",
">. c #71247F",
",. c #6A3677",
"<. c #703679",
"1. c #3A4466",
"2. c #754278",
"3. c #631D83",
"4. c #6C1F8E",
"5. c #6A2384",
"6. c #6D218C",
"7. c #762A84",
"8. c #79258B",
"9. c #713581",
"0. c #783E82",
"q. c #7D2594",
"w. c #7B2894",
"e. c #7C3590",
"r. c #6C4198",
"t. c #5A6988",
"y. c #80268E",
"u. c #822C8D",
"i. c #84378C",
"p. c #852892",
"a. c #842897",
"s. c #82279F",
"d. c #8D2B9A",
"f. c #8B309E",
"g. c #95339F",
"h. c #8021A7",
"j. c #8E29A2",
"k. c #8523AD",
"l. c #8E26AA",
"z. c #9629A8",
"x. c #9B28A8",
"c. c #973CA0",
"v. c #9A33A9",
"b. c #A02DAC",
"n. c #A13FA6",
"m. c #A22AB5",
"M. c #8A418E",
"N. c #8A5188",
"B. c #894D90",
"V. c #9D589C",
"C. c #915FB6",
"Z. c #A347AA",
"A. c #AB54AA",
"S. c #A658AB",
"D. c #AD60AC",
"F. c #B732C3",
"G. c #C135D5",
"H. c #DE39E8",
"J. c #DE3CE8",
"K. c #BB4AC8",
"L. c #B954C2",
"P. c #8B9BB4",
"I. c #D086CC",
"U. c #F78FE3",
"Y. c #F792E3",
"T. c #C0CBDC",
"R. c #FED2DE",
"E. c #F6F9E9",
/* pixels */
"                                                                                                                                ",
"      T.                  1.                                                            %                                       ",
"                                                                                        % %                                     ",
"                                                                                      % %                                       ",
"                                                                                    % % %                                       ",
"                                    t.                                      1.      k k                                         ",
"                                                                                  k k k %                                       ",
"                                                                                  k p < %                                       ",
"                                                                                k j t , +                                       ",
"                                                                                k p < = # X X                                   ",
"                                                                              k k t , = # O o X                                 ",
"                                                                              k.l e - = * = O X                                 ",
"                %                                                 t.        k.k.b 8 % # O O o                                   ",
"              % % % %                           P.                      n k.k.! c 7 % O X X X                           n       ",
"  P.              % % k k                                                 k.4.U r 5 # X                                         ",
"                X - < e i k k                                   n       k.k.! r 7 - O X               1.                        ",
"      1.o       X # , < e i p k k                                       k.k.A 7 - # X                                           ",
"        o       X O = , < 7 t p k k.                                  H.H.Q c 7 - # X                                           ",
"                  X # = , , , t k k.k.k.                              x.z.Q 8 , - # X                                           ",
"                    X # # # % 5 r U k.k.k.k.-                       p.b.y.C 7 5 - # X                                           ",
"                      X X X o # 5 f c U k.k.k.H.                    n.v.Q d f 6 5 - # X                                         ",
"                              X # - 7 f R 3.l.m.H.            5 6 Y.A.i.S S f f r 7 > % +                                       ",
"                                X # % 5 u v ) a.x.H.H.  - 8 c E S Y.V.@.5.S C c c 7 > % k               P.                      ",
"                                  X O # $ & w V ) u.Y.Y.Y.Y H.H.E.Y.S.v.X.W U A c f                                 n           ",
"                                      O X @ $ 2 2 C - Y.Y.E.E.E.E.E.K.-.C.W U c f 8                                             ",
"                                    O O O X . @ q 4 U S q.E.E.E.E.H.H.f.5._ C f 6 -                                             ",
"                                    O % O X   ; v k.W s.H.H.E.E.E.E.H.L.9.L h 8 , -         P.                                  ",
"                                        > q w v / k.k.h.H.H.E.E.E.E.R.I.B.@.L s 5 -               1.                            ",
"                                  X O - 8 z I T / 3.~ ~ h.Y.E.H.H.H.R.R.D.c.e.E f 5 -                                           ",
"                                  X # - 7 b R Y A A A *.W Y.Y.J.H.j.Q C H.H.d.8.~ C 7                                           ",
"                                  X O % - 5 7 7 5 5 C 7.Y.Y.J.J.J.k.W W } >.p.8.5.W                                             ",
"                      T.        . X X O # % - - 5 5 E g.H.Y.J.J.k.k.6.Y h h S Q ( 4.4.k.                                        ",
"                                    . X X O # - 6 C 7.F.H.<.J.J.k.k.6.W h y s f A W 4.4.3.                                      ",
"                                          X O & r Q d.H.H.,.U.J.J.k.5.Y C y 8 6 r z A R Y o.k.                                  ",
"                                            X & f ;.H.H.h L h.U.h.k.' S h a 7 , , 8 u a f A o.r.r.                              ",
"                                            @ 2 V ( l.q.W g ' h.*.k.k.' h 7 7 & # & & & & 3 f ` ` +.r.                          ",
"                                          . @ 3 Z ~ 4.G.c d A ! -.} 5.X.C 8 5 % O O X X   o % 7 p B B O.r.                t.    ",
"                                          X @ q I ! W f a h Y h.h.w.o.{ c a - # X .           o % , e x x j                     ",
"                                          O 2 v ! J.f 6 a S h.J.J.a...b g 9 - #                     o : e e < k       n         ",
"                                          # u ! 3.W 6 - d S J.J.J.Z.,.G d 7 , #                       X + , < < ,               ",
"                                          % l ^ ( C - - 8 J.g.J.U.U.%.M 9 6 5 -                         . O % % +               ",
"                              X         o : l R Y h - - 9 D i.J.M.&.M 0 6 - 9 8                             X o X               ",
"                                n   O O + < p j 7 7 5 5 m J $.@.P G s 6 5 1 d =.8                                               ",
"                                    t.= : e i e 7 5 5 5 m F F G D d 9 6 1 1 - 8 d                                               ",
"                                        k i e < 5 , - 5 m M G h h s d s s 6 - - - O                                             ",
"    n                                 : k t < , , - - 6 9 C Y h.c g h J.' h -   O X                                             ",
"                                    . % < < , , - - - 5 s ] h.J.h.} C ] J.h 5 # X                                               ",
"                                        X % , , - - - 5 s | J.U.J.=.| *.' C 6 # X                                               ",
"                                      . O % = - = # - - 6 [ U.U.U.0.[ K h 8 , # X                                               ",
"                                      . # 7 8 = O O # - 6 G 2.N.#. .M s 7 , # O X                         1.                    ",
"                                      X % a =.2 X . # - 9 N J J F m 9 6 - # O X                                       t.        ",
"                                      X & a d > X   # - 9 m M 0 9 9 6 - # O       . .                                           ",
"                                        - 5 - o .   # - 9 y m s 9 7 5 - # X     > 2                                             ",
"                                                    # - 6 y c c h 8 5 = O X X X 2 =.8 - O X                                     ",
"                      P.                            # - 7 c Y h.A f 5 O X X X X 2 8 h 5 # X     > 2                             ",
"                                                    # - 7 A h.J.h.h 2 o   X X X O 5 5 - # X     2 4 8         n                 ",
"                                                    # - 6 C J.J.J.Y 5 O         X # # # X       3 8 d -                 n       ",
"                                        s =.        X # - h =.U.:.S 7 #           X X X         - - 5 -                         ",
"                                      - h s         . # - 9 H P P s , # .                         - - -                         ",
"                                      - 5 5         . # & 6 9 s 9 5 % X                                                   t.    ",
"                                        -           3 4 8 5 5 5 1 & O X           > 2 2 X                                       ",
"                                                    a a 8 - - - # # X             2 =.8                                         ",
"                                                    a 4 2 # # # O X                 8 8                                         ",
"                                    P.              $ # o X X X X .                                                             "
};
